<?xml version="1.0" encoding="UTF-8"?>
<svg id="Capa_1" data-name="Capa 1" xmlns="http://www.w3.org/2000/svg" viewBox="0 0 9.53 11.76">
  <defs>
    <style>
      .cls-1 {
        fill: #0d6efd;
      }

      .cls-2 {
        fill: #80c7b0;
      }
    </style>
  </defs>
  <g>
    <path class="cls-1" d="m8.21,2.16h-1.4v-.52c0-.9-.73-1.64-1.64-1.64h-.82c-.9,0-1.64.73-1.64,1.64v.52h-1.4l-.28,2.03c.17-.15.36-.29.55-.41l.08-.05c.44-.29.93-.36,1.44-.2l.24.08c0,.8.65,1.45,1.45,1.45s1.45-.65,1.45-1.45c.53-.21,1.19-.15,1.66.16l.02.02c.19.12.38.26.55.41l-.28-2.03Zm-5.14,0v-.52c0-.71.58-1.29,1.29-1.29h.82c.71,0,1.29.58,1.29,1.29v.52h-3.39Z"/>
    <polygon class="cls-1" points="8.12 7.5 7.45 6.46 7.95 11.76 9.53 11.76 8.88 7.05 8.12 7.5"/>
    <polygon class="cls-1" points="2.08 6.46 1.41 7.5 .65 7.05 0 11.76 1.59 11.76 2.08 6.46"/>
  </g>
  <path class="cls-2" d="m7.19,9.09h-.23c0-1.18-.96-2.14-2.14-2.14s-2.14.96-2.14,2.14h-.23c0-1.3,1.06-2.37,2.37-2.37s2.37,1.06,2.37,2.37Z"/>
  <path class="cls-1" d="m6.65,9.09h-.23c0-.88-.72-1.6-1.6-1.6s-1.6.72-1.6,1.6h-.23c0-1.01.82-1.83,1.83-1.83s1.83.82,1.83,1.83Z"/>
  <path class="cls-2" d="m6.06,9.09h-.23c0-.56-.45-1.01-1.01-1.01s-1.01.45-1.01,1.01h-.23c0-.68.56-1.24,1.24-1.24s1.24.56,1.24,1.24Z"/>
</svg>